<svg version="1.1" id="Fish-Cake-With-Swirl--Streamline-Noto-Emoji.svg" xmlns="http://www.w3.org/2000/svg" xmlns:xlink="http://www.w3.org/1999/xlink" x="0" y="0" viewBox="-0.5 -0.5 32 32" xml:space="preserve" enable-background="new 0 0 128 128" height="32" width="32"><desc>Fish Cake With Swirl Streamline Emoji: https://streamlinehq.com</desc><path d="M15.5484375 0.888828125c0.9905468749999999 0 3.196875 1.9423437499999998 3.196875 1.9423437499999998s3.8822656250000005 -0.380234375 4.60640625 0.075078125c0.7241406250000001 0.45773437499999997 1.4095312500000001 3.8822656250000005 1.4095312500000001 3.8822656250000005s2.7803125 0.4940625 3.274375 1.218203125c0.4940625 0.7241406250000001 0.19132812500000002 4.11234375 0.19132812500000002 4.11234375s1.90359375 2.13125 1.8285156249999999 3.196875 -1.9423437499999998 3.2356249999999998 -1.9423437499999998 3.2356249999999998 0.646640625 3.465703125 0.22765624999999998 4.2261718749999995c-0.418984375 0.76046875 -3.5020312500000004 2.13125 -3.5020312500000004 2.13125s-1.143125 2.9304687499999997 -1.6759375 3.274375c-0.5328125 0.341484375 -4.453828125 -0.075078125 -4.453828125 -0.075078125s-2.361328125 2.056171875 -3.00796875 2.0949218750000003c-0.646640625 0.03875 -3.196875 -2.13125 -3.196875 -2.13125s-3.8822656250000005 0.5328125 -4.453828125 0.19132812500000002c-0.6442187500000001 -0.385078125 -1.5984375 -3.1217968750000002 -1.5984375 -3.1217968750000002s-3.073359375 -0.7895312499999999 -3.57953125 -1.5984375c-0.380234375 -0.6103125 -0.26640625 -4.187421875 -0.26640625 -4.187421875s-1.705 -2.59140625 -1.7534375 -3.6570312499999997c-0.03875 -0.83796875 2.017421875 -3.2356249999999998 2.017421875 -3.2356249999999998s-0.30515625 -3.7684375 0.11382812499999999 -4.4925781250000005 2.8553906249999996 -0.951796875 2.8553906249999996 -0.951796875 1.1043749999999999 -3.5407812499999998 1.8648437500000001 -3.9985156250000005 4.4925781250000005 0.152578125 4.4925781250000005 0.152578125S14.63296875 0.888828125 15.5484375 0.888828125z" fill="#AFAFAF" stroke-width="1"></path><path d="M15.509687500000002 1.765546875c-0.45531249999999995 -0.041171875000000004 -2.894140625 2.322578125 -2.894140625 2.322578125s-3.732109375 -0.380234375 -4.148671875 -0.19132812500000002c-0.418984375 0.19132812500000002 -1.5984375 3.732109375 -1.5984375 3.732109375s-2.7803125 0.380234375 -3.160546875 0.913046875 0.19132812500000002 4.148671875 0.19132812500000002 4.148671875 -2.05859375 2.5139062500000002 -2.05859375 2.9328906249999998c0 0.418984375 1.90359375 3.274375 1.90359375 3.274375s-0.341484375 2.8553906249999996 -0.11382812499999999 3.2356249999999998c0.22765624999999998 0.380234375 3.313125 1.445859375 3.313125 1.445859375s0.9905468749999999 3.1217968750000002 1.523359375 3.313125c0.5328125 0.19132812500000002 4.264921875 -0.341484375 4.264921875 -0.341484375s2.3976562500000003 1.8285156249999999 2.8166406250000002 1.8285156249999999c0.418984375 0 2.7028125 -1.9423437499999998 2.7028125 -1.9423437499999998s4.03484375 0.45773437499999997 4.4174999999999995 0.30515625 1.9423437499999998 -3.388203125 1.9423437499999998 -3.388203125 2.8553906249999996 -0.951796875 3.00796875 -1.4095312500000001 -0.5715625 -4.11234375 -0.5715625 -4.11234375 2.1700000000000004 -2.361328125 2.13125 -2.96921875c-0.03875 -0.6103125 -1.90359375 -2.6277343749999997 -1.90359375 -2.6277343749999997s0.30515625 -3.388203125 0.03875 -3.8459375000000002c-0.26640625 -0.45773437499999997 -3.274375 -0.913046875 -3.274375 -0.913046875s-0.76046875 -3.465703125 -1.143125 -3.693359375c-0.380234375 -0.22765624999999998 -4.07359375 0.19132812500000002 -4.07359375 0.19132812500000002S15.928671875 1.8042968750000001 15.509687500000002 1.765546875z" fill="#E2E2E2" stroke-width="1"></path><path d="M15.5484375 3.0588281250000002s2.550234375 1.978671875 2.894140625 2.056171875c0.341484375 0.075078125 3.732109375 -0.418984375 3.732109375 -0.418984375s0.7241406250000001 3.349453125 0.951796875 3.57953125 3.160546875 0.87671875 3.160546875 0.87671875 -0.075078125 3.196875 0.03875 3.388203125c0.11382812499999999 0.19132812500000002 1.6759375 2.361328125 1.6759375 2.361328125s-1.9423437499999998 2.3976562500000003 -2.017421875 2.7028125 0.7241406250000001 3.8459375000000002 0.7241406250000001 3.8459375000000002 -2.7415625 1.065625 -2.96921875 1.2569531250000001c-0.22765624999999998 0.19132812500000002 -1.523359375 2.9304687499999997 -1.523359375 2.9304687499999997s-3.7684375 -0.418984375 -4.2261718749999995 -0.30515625c-0.45773437499999997 0.11382812499999999 -2.361328125 1.6759375 -2.361328125 1.6759375s-2.361328125 -1.523359375 -2.7028125 -1.6371875c-0.341484375 -0.11382812499999999 -3.959765625 0.418984375 -3.959765625 0.418984375s-1.179453125 -2.9304687499999997 -1.37078125 -3.1217968750000002c-0.19132812500000002 -0.19132812500000002 -2.8166406250000002 -1.218203125 -2.8166406250000002 -1.218203125s0.19132812500000002 -2.96921875 0.11382812499999999 -3.196875c-0.075078125 -0.22765624999999998 -1.7510156250000002 -2.7028125 -1.7510156250000002 -2.7028125s1.7510156250000002 -2.322578125 1.8648437500000001 -2.8166406250000002 -0.22765624999999998 -3.5407812499999998 -0.22765624999999998 -3.5407812499999998 2.8166406250000002 -0.646640625 3.00796875 -0.83796875c0.19132812500000002 -0.19132812500000002 1.2569531250000001 -3.57953125 1.2569531250000001 -3.57953125s3.465703125 0.5328125 3.8459375000000002 0.45773437499999997 2.65921875 -2.17484375 2.65921875 -2.17484375z" fill="#FEFFFF" stroke-width="1"></path><path d="M16.357343750000002 7.117890625c0.058124999999999996 0.467421875 -1.2884375000000001 0.544921875 -2.7560937500000002 1.2835937499999999 -1.3465624999999999 0.678125 -6.195156249999999 4.076015624999999 -3.46328125 9.515546875 1.2060937500000002 2.4025 3.62796875 3.368828125 6.195156249999999 3.0612500000000002 3.1799218750000002 -0.380234375 5.795546875 -2.966796875 4.9696875 -6.313828125 -0.515859375 -2.0900781250000002 -1.998046875 -2.8723437499999998 -3.4778124999999998 -3.041875 -2.0343750000000003 -0.23249999999999998 -3.7490625 1.203671875 -3.7781249999999997 2.7585156250000002 -0.046015625 2.661640625 3.13390625 2.356484375 3.08546875 0.988125s0.7071875 -1.484609375 0.917890625 -1.50640625c0.213125 -0.02421875 1.1552343749999998 0.18890625 1.20125 1.414375s-0.79921875 3.6594531249999998 -3.9331249999999995 3.4390625c-3.3203906250000004 -0.23249999999999998 -3.67640625 -3.4608593749999996 -3.51171875 -4.778359375 0.08234375000000001 -0.661171875 0.8500781249999999 -4.1946875 5.020546875 -4.4780468749999995 4.187421875 -0.28335937499999997 6.483359375 3.0031250000000003 6.62625 5.735 0.28335937499999997 5.46375 -4.03484375 8.350624999999999 -8.604921875 8.091484374999999S7.381875 19.05046875 7.476328125 14.480390625c0.09929687499999999 -4.805 4.153515625 -6.7521875 5.3353906250000005 -7.27046875 1.281171875 -0.559453125 3.4753906249999997 -0.6684374999999999 3.5456250000000002 -0.09203125z" fill="#EF7EAD" stroke-width="1"></path></svg>